<mxfile host="app.diagrams.net" modified="2021-02-01T08:23:43.491Z" agent="5.0 (Windows NT 10.0; Win64; x64) AppleWebKit/537.36 (KHTML, like Gecko) Chrome/89.0.4389.6 Safari/537.36 Edg/89.0.774.8" etag="6PPwx0bLMYWXLjNn7juQ" version="14.2.9" type="github">
  <diagram id="leLTEJNQcFc4nUgobC2B" name="第 1 页">
    <mxGraphModel dx="964" dy="564" grid="1" gridSize="10" guides="1" tooltips="1" connect="1" arrows="1" fold="1" page="1" pageScale="1" pageWidth="827" pageHeight="1169" math="0" shadow="0">
      <root>
        <mxCell id="0" />
        <mxCell id="1" parent="0" />
        <mxCell id="o4UgBGlFSEZU3jyoHkZ8-1" value="&lt;h1&gt;Heading&lt;/h1&gt;&lt;p&gt;Lorem ipsum dolor sit amet, consectetur adipisicing elit, sed do eiusmod tempor incididunt ut labore et dolore magna aliqua.&lt;/p&gt;" style="text;html=1;strokeColor=none;fillColor=none;spacing=5;spacingTop=-20;whiteSpace=wrap;overflow=hidden;rounded=0;" vertex="1" parent="1">
          <mxGeometry x="280" y="250" width="190" height="120" as="geometry" />
        </mxCell>
        <mxCell id="o4UgBGlFSEZU3jyoHkZ8-2" value="Actor" style="shape=umlActor;verticalLabelPosition=bottom;verticalAlign=top;html=1;outlineConnect=0;" vertex="1" parent="1">
          <mxGeometry x="570" y="210" width="30" height="60" as="geometry" />
        </mxCell>
        <mxCell id="o4UgBGlFSEZU3jyoHkZ8-3" value="" style="shape=tape;whiteSpace=wrap;html=1;" vertex="1" parent="1">
          <mxGeometry x="650" y="210" width="120" height="100" as="geometry" />
        </mxCell>
        <mxCell id="o4UgBGlFSEZU3jyoHkZ8-4" value="" style="shape=cube;whiteSpace=wrap;html=1;boundedLbl=1;backgroundOutline=1;darkOpacity=0.05;darkOpacity2=0.1;" vertex="1" parent="1">
          <mxGeometry x="510" y="370" width="120" height="80" as="geometry" />
        </mxCell>
        <mxCell id="o4UgBGlFSEZU3jyoHkZ8-5" value="Pool" style="swimlane;html=1;childLayout=stackLayout;resizeParent=1;resizeParentMax=0;horizontal=1;startSize=20;horizontalStack=0;" vertex="1" parent="1">
          <mxGeometry x="170" y="100" width="480" height="380" as="geometry" />
        </mxCell>
        <mxCell id="o4UgBGlFSEZU3jyoHkZ8-6" value="Lane 1" style="swimlane;html=1;startSize=20;horizontal=0;" vertex="1" parent="o4UgBGlFSEZU3jyoHkZ8-5">
          <mxGeometry y="20" width="480" height="120" as="geometry" />
        </mxCell>
        <mxCell id="o4UgBGlFSEZU3jyoHkZ8-7" value="Lane 2" style="swimlane;html=1;startSize=20;horizontal=0;" vertex="1" parent="o4UgBGlFSEZU3jyoHkZ8-5">
          <mxGeometry y="140" width="480" height="120" as="geometry" />
        </mxCell>
        <mxCell id="o4UgBGlFSEZU3jyoHkZ8-8" value="Lane 3" style="swimlane;html=1;startSize=20;horizontal=0;" vertex="1" parent="o4UgBGlFSEZU3jyoHkZ8-5">
          <mxGeometry y="260" width="480" height="120" as="geometry" />
        </mxCell>
      </root>
    </mxGraphModel>
  </diagram>
</mxfile>
